<svg width="966" height="324" viewBox="0 0 966 324" fill="none" xmlns="http://www.w3.org/2000/svg">
<g clip-path="url(#clip0)">
<path d="M820.776 394.498C822.309 399.095 820.558 404.02 818.258 408.289C812.016 420 801.943 429.631 789.899 435.213C783.22 438.387 775.992 440.248 769.095 443.093C749.057 451.411 732.742 468.047 724.968 488.296C727.267 474.286 719.931 460.386 710.952 449.332C702.083 438.278 691.352 428.318 685.002 415.622C679.527 404.677 679.417 388.479 690.477 383.225C698.58 379.394 708.763 383.663 717.085 380.16C720.042 378.847 722.67 376.22 722.559 373.046C722.121 364.946 706.135 365.494 705.697 357.395C705.259 348.092 729.787 350.829 726.611 341.963C725.298 338.242 720.042 337.147 718.29 333.645C716.428 330.143 716.538 325.218 719.713 322.7C723.764 319.417 729.896 322.044 735.043 320.84C740.846 319.526 744.569 313.616 745.773 307.706C746.978 301.796 746.321 295.776 747.197 289.866C749.277 275.309 761.212 262.723 775.556 259.659C789.9 256.594 805.886 263.38 813.66 275.857C816.836 281.001 818.588 287.896 815.193 292.821C812.236 296.979 805.886 299.716 806.433 304.751C807.09 311.646 819.901 312.303 820.119 319.198C820.338 327.298 803.695 327.298 804.133 335.396C804.351 339.009 808.184 341.088 810.484 343.933C814.864 349.186 813.111 358.27 807.09 361.554C804.68 362.867 801.834 363.414 799.972 365.275C795.154 369.981 799.863 378.299 805.557 381.802C811.251 385.305 818.696 388.041 820.776 394.498Z" fill="url(#paint0_linear)"/>
<path d="M757.269 224.197H220.519V571.585H757.269V224.197Z" fill="url(#paint1_linear)"/>
<path d="M747.853 232.844H229.936V518.94H747.853V232.844Z" fill="white"/>
<path d="M746.428 183.592C746.428 183.811 746.428 184.03 746.428 184.249C746.428 193.333 753.764 200.666 762.853 200.666C771.942 200.666 779.278 193.334 779.278 184.249C779.278 184.03 779.278 183.811 779.278 183.592H746.428Z" fill="#D3E3FE"/>
<path d="M805.228 143.643C805.228 143.972 805.228 144.409 805.228 144.738C805.228 159.732 817.382 171.88 832.383 171.88C847.383 171.88 859.537 159.732 859.537 144.738C859.537 144.409 859.537 143.972 859.537 143.643C859.538 143.643 805.228 143.643 805.228 143.643Z" fill="#A1C3FC"/>
<path d="M116.717 115.187C116.717 115.843 116.717 116.391 116.717 117.048C116.717 142.33 137.302 162.907 162.596 162.907C187.89 162.907 208.475 142.331 208.475 117.048C208.475 116.391 208.475 115.843 208.475 115.187C208.474 115.187 116.717 115.187 116.717 115.187Z" fill="#F4F4F4"/>
<path d="M164.785 115.187C164.785 115.625 164.785 116.062 164.785 116.5C164.785 134.888 179.677 149.772 198.072 149.772C216.468 149.772 231.359 134.888 231.359 116.5C231.359 116.062 231.359 115.625 231.359 115.187H164.785Z" fill="#E7EFFE"/>
<path d="M193.803 238.316L185.59 237.33C184.824 237.439 184.058 237.439 183.29 237.659L196.101 239.082C195.226 238.863 194.569 238.534 193.803 238.316ZM198.839 240.614L180.224 238.535C179.786 238.644 179.458 238.864 179.02 238.973L199.824 241.381C199.496 241.052 199.168 240.833 198.839 240.614ZM201.357 242.584L177.049 239.849C176.72 239.958 176.501 240.177 176.173 240.287L201.795 243.242C201.686 242.912 201.466 242.803 201.357 242.584ZM202.562 244.445L174.64 241.271C174.421 241.38 174.201 241.6 173.983 241.709L202.78 244.993C202.781 244.773 202.671 244.554 202.562 244.445ZM203.219 246.196L172.779 242.694C172.561 242.803 172.45 243.023 172.232 243.241L203.329 246.743C203.219 246.524 203.219 246.306 203.219 246.196ZM203.438 247.838L171.137 244.116C171.028 244.335 170.808 244.445 170.699 244.664L203.438 248.385C203.438 248.276 203.438 248.056 203.438 247.838ZM203.438 249.589L169.823 245.758C169.714 245.977 169.605 246.087 169.385 246.306L203.329 250.246C203.438 249.917 203.438 249.808 203.438 249.589ZM203.328 251.23L168.727 247.29C168.618 247.509 168.509 247.619 168.398 247.838L203.327 251.778C203.328 251.668 203.328 251.45 203.328 251.23ZM202.781 253.091C202.781 252.982 202.891 252.982 202.891 252.873L167.742 248.823C167.633 249.042 167.524 249.152 167.413 249.371L202.452 253.42C202.562 253.311 202.671 253.2 202.781 253.091ZM200.263 254.514C200.372 254.514 200.482 254.404 200.592 254.404L166.867 250.574C166.757 250.792 166.757 250.903 166.648 251.121L199.497 254.843C199.825 254.733 200.043 254.624 200.263 254.514ZM197.963 255.718L166.428 252.106C166.319 252.324 166.319 252.434 166.319 252.653L197.416 256.155C197.525 256.047 197.744 255.937 197.963 255.718ZM196.211 257.251L165.881 253.749C165.881 253.967 165.771 254.078 165.771 254.296L195.664 257.689C195.992 257.578 196.101 257.36 196.211 257.251ZM195.006 258.782L165.661 255.39C165.661 255.608 165.661 255.719 165.552 255.937L194.568 259.221C194.788 259.111 194.897 259.001 195.006 258.782ZM194.131 260.425L165.552 257.141C165.552 257.36 165.552 257.47 165.552 257.689L193.911 260.972C193.912 260.752 194.021 260.534 194.131 260.425ZM193.474 262.066L165.662 258.892C165.662 259.11 165.662 259.221 165.662 259.439L193.255 262.613C193.364 262.395 193.474 262.175 193.474 262.066ZM193.145 263.708L165.99 260.643C165.99 260.862 166.099 261.081 166.099 261.191L193.145 264.255C193.145 264.036 193.145 263.817 193.145 263.708ZM166.756 262.942L193.145 266.007C193.145 265.788 193.145 265.678 193.145 265.459L166.537 262.395C166.538 262.504 166.647 262.722 166.756 262.942ZM167.633 264.692L193.364 267.648C193.364 267.429 193.255 267.21 193.255 267.101L167.305 264.145C167.413 264.255 167.524 264.474 167.633 264.692ZM168.947 266.553L193.474 269.398C193.474 269.18 193.474 269.07 193.474 268.851L168.399 266.006C168.618 266.116 168.727 266.335 168.947 266.553ZM170.808 268.414C170.918 268.414 170.918 268.523 171.027 268.523L192.707 271.041C192.817 270.931 192.926 270.712 193.036 270.493L170.151 267.866C170.37 267.976 170.589 268.195 170.808 268.414ZM175.516 270.713L189.532 272.355C190.08 272.246 190.627 272.136 191.175 272.026L173.436 269.947C174.093 270.165 174.859 270.493 175.516 270.713Z" fill="#B3C9EE"/>
<path d="M550.562 316.713C568.391 322.877 582.512 334.412 591.123 348.205C610.307 329.036 628.094 299.985 640.095 265.326C664.562 194.653 620.326 115.211 620.326 115.211C620.326 115.211 536.418 150.354 511.95 221.027C499.95 255.688 495.969 289.51 499.196 316.428C514.496 310.899 532.732 310.55 550.562 316.713Z" fill="url(#paint2_linear)"/>
<path d="M602.661 220.007C607.386 221.64 611.484 224.263 614.807 227.562C613.417 215.7 605.428 205.085 593.369 200.916C576.587 195.115 558.279 203.997 552.476 220.756C548.306 232.798 551.729 245.628 560.211 254.05C559.667 249.403 560.135 244.565 561.768 239.847C567.57 223.088 585.88 214.206 602.661 220.007Z" fill="#EFEFEF"/>
<path d="M613.248 241.761C614.881 237.043 615.35 232.205 614.805 227.558C611.482 224.259 607.383 221.636 602.659 220.003C585.876 214.202 567.566 223.084 561.765 239.843C560.132 244.561 559.663 249.399 560.208 254.046C563.531 257.346 567.631 259.968 572.355 261.601C589.138 267.403 607.447 258.52 613.248 241.761Z" fill="white"/>
<path d="M625.301 269.555L586.01 344.595L616.048 385.997C636.268 339.944 638.51 301.486 625.301 269.555Z" fill="#FF4945"/>
<path d="M524.37 234.691L508.855 317.957L459.628 331.962C472.213 283.266 494.236 251.64 524.37 234.691Z" fill="#FF4945"/>
<path d="M618.671 124.163C618.38 124.222 618.072 124.206 617.772 124.103C616.88 123.795 616.406 122.821 616.714 121.931L634.981 69.163C635.292 68.2717 636.268 67.7998 637.157 68.1068C638.049 68.4152 638.523 69.3884 638.214 70.2793L619.947 123.047C619.74 123.641 619.242 124.047 618.671 124.163Z" fill="#FF4945"/>
<path d="M590.366 268.322C583.765 269.658 576.894 269.195 570.496 266.982C560.94 263.678 553.243 256.856 548.823 247.772C544.402 238.69 543.785 228.432 547.089 218.889C551.445 206.304 562.278 196.841 575.359 194.194C581.96 192.858 588.831 193.321 595.228 195.532C614.955 202.352 625.454 223.927 618.637 243.625C614.279 256.213 603.447 265.675 590.366 268.322ZM577.628 205.356C568.481 207.207 560.909 213.821 557.864 222.616C555.556 229.284 555.987 236.452 559.076 242.801C562.166 249.148 567.545 253.915 574.222 256.224C578.695 257.771 583.494 258.095 588.1 257.163C597.247 255.312 604.82 248.698 607.865 239.902C612.629 226.137 605.291 211.062 591.507 206.296C587.031 204.749 582.233 204.425 577.628 205.356Z" fill="#FF4945"/>
<path d="M563.868 169C599.666 181.376 628.438 204.118 646.995 231.683C651.762 171.635 620.343 115.211 620.343 115.211C620.343 115.211 581.225 131.601 548.62 164.491C553.708 165.75 558.797 167.249 563.868 169Z" fill="#5BABF2"/>
<path d="M645.619 182.049C638.501 142.115 621.567 111.693 621.567 111.693C621.567 111.693 589.442 125.156 559.149 152.158L645.619 182.049Z" fill="url(#paint3_linear)"/>
<path d="M324.992 314.118C272.943 323.953 239.687 308.478 204.865 318.172C204.865 318.172 186.539 234.665 170.531 198.395C181.233 182.322 206.234 173.411 224.2 166.447C252.927 155.317 279.287 138.19 301.149 116.464C329.18 147.322 387.711 216.025 387.711 216.025C361.961 238.185 351.596 278.19 324.992 314.118Z" fill="#151A4F"/>
<path d="M451.914 75.5798L274.655 240.805L50.5849 278.028L242.387 99.9201L451.914 75.5798Z" fill="#23286B"/>
<path d="M272.7 154.716L246.704 178.95L213.839 184.41L241.97 158.285L272.7 154.716Z" fill="#428DFC"/>
<path d="M39.7999 364.478C56.5441 354.131 70.2197 338.543 77.7018 320.489C80.7012 313.253 82.7898 305.602 84.8145 298.205C86.3943 292.425 88.0297 286.451 90.0796 280.745C100.729 251.113 124.568 224.106 157.333 204.577C187.721 186.485 221.959 176.337 254.433 168.07C255.061 167.908 255.434 167.275 255.276 166.653C255.118 166.029 254.486 165.652 253.86 165.812C221.216 174.125 186.784 184.331 156.14 202.578C122.99 222.336 98.7172 249.819 87.8863 279.959C85.8062 285.751 84.1578 291.771 82.566 297.594C80.5618 304.921 78.4878 312.502 75.5444 319.601C65.1378 344.707 42.4382 364.935 16.309 372.395C8.79784 374.541 3.5121 374.368 -0.331516 371.85C-2.73369 370.276 -4.25427 366.866 -3.94312 363.733C-3.8128 362.428 -3.24229 360.104 -0.846209 359.128C-0.262633 358.889 0.0384501 358.207 -0.200408 357.614C-0.444409 357.016 -1.12291 356.729 -1.71718 356.972C-4.30683 358.007 -5.95108 360.397 -6.26244 363.514C-6.65822 367.523 -4.74676 371.753 -1.60719 373.808C4.23766 377.634 11.7844 376.115 16.9514 374.641C24.9583 372.352 32.6597 368.891 39.7999 364.478Z" fill="#428DFC"/>
<path d="M35.7466 349.318C46.0094 342.976 55.4631 334.433 62.9346 327.263C73.4677 317.158 81.397 304.904 87.1717 289.8C87.4044 289.2 87.1011 288.527 86.5007 288.294C85.8942 288.062 85.2239 288.367 84.995 288.969C79.3455 303.742 71.6023 315.719 61.3241 325.579C52.1597 334.368 39.9962 345.241 27.1409 351.392C16.3122 356.569 8.08719 352.649 4.33385 347.716C1.66149 344.209 1.24734 340.269 3.29603 337.913C3.72077 337.427 3.66554 336.69 3.18243 336.27C2.69415 335.846 1.96554 335.897 1.53761 336.388C-1.25485 339.603 -0.877046 344.726 2.48271 349.135C7.1008 355.205 16.83 358.908 28.1487 353.496C30.7163 352.27 33.2549 350.858 35.7466 349.318Z" fill="#428DFC"/>
<path d="M51.9297 378.73C65.0604 370.616 75.8807 358.691 82.4946 344.758C91.5646 325.647 93.5034 307.124 88.2614 289.709C88.0754 289.092 87.4246 288.746 86.8105 288.931C86.1886 289.123 85.8466 289.769 86.0298 290.381C91.1022 307.227 89.2054 325.187 80.3931 343.759C72.2238 360.961 57.4508 375.011 39.8659 382.308C39.2876 382.551 38.9856 383.236 39.2343 383.83C39.4783 384.427 40.1608 384.705 40.7574 384.461C44.6219 382.859 48.3633 380.934 51.9297 378.73Z" fill="#428DFC"/>
</g>
<defs>
<linearGradient id="paint0_linear" x1="681.544" y1="373.611" x2="821.526" y2="373.611" gradientUnits="userSpaceOnUse">
<stop stop-color="#B9D3FD"/>
<stop offset="1" stop-color="#89B3F4"/>
</linearGradient>
<linearGradient id="paint1_linear" x1="220.519" y1="397.891" x2="757.269" y2="397.891" gradientUnits="userSpaceOnUse">
<stop stop-color="#EEEEEE"/>
<stop offset="1" stop-color="#D6D7D8"/>
</linearGradient>
<linearGradient id="paint2_linear" x1="518.672" y1="201.614" x2="646.794" y2="245.977" gradientUnits="userSpaceOnUse">
<stop stop-color="#92C4FE"/>
<stop offset="1" stop-color="#5BABF2"/>
</linearGradient>
<linearGradient id="paint3_linear" x1="568.741" y1="124.453" x2="655.196" y2="154.389" gradientUnits="userSpaceOnUse">
<stop stop-color="#FF4945"/>
<stop offset="1" stop-color="#F92424"/>
</linearGradient>
<clipPath id="clip0">
<rect width="966" height="724" fill="white"/>
</clipPath>
</defs>
</svg>
