<svg width="151" height="106" viewBox="0 0 151 106" fill="none" xmlns="http://www.w3.org/2000/svg">
<path d="M88.7101 37.57L110.79 64.28L133.16 37.57V79.21C137.891 79.21 142.429 77.33 145.775 73.985C149.12 70.639 151 66.101 151 61.37V0.27002C144.49 0.27002 141.44 2.19002 139 4.95002L111.21 37.57L82.9001 4.85002C79.8401 1.60002 76.5901 0.27002 70.6801 0.27002V61.17C70.6801 65.944 72.5761 70.522 75.9521 73.898C79.3281 77.274 83.9061 79.17 88.6801 79.17V37.57" fill="white"/>
<path opacity="0.38" d="M51.3001 29.9999C41.5801 19.8199 12.4901 28.1099 10.4601 31.2699C10.8061 29.0569 11.459 26.9029 12.4 24.8699C-17.94 51.2099 17.32 92.3699 41.73 94.9699C10.42 75.7299 9.29006 40.6199 51.3001 29.9999Z" fill="url(#paint0_linear)"/>
<path d="M51.6101 1.43994C49.2141 0.646944 46.7041 0.251939 44.1801 0.26935H10.4601C17.8001 22.2699 48.1601 11.5399 48.1401 24.2699C51.6901 26.1999 52.7901 28.1199 51.3001 30.0299C47.4601 25.6199 11.3001 25.7899 10.4601 49.4699V52.7399C11.0701 72.0099 19.0601 77.8299 25.7601 79.0099L26.2101 79.0799L27.0101 79.1799C27.5501 79.1799 28.0901 79.2599 28.6401 79.2599V45.9999H46.8301C46.8301 45.9999 68.2601 45.9999 68.2601 24.4099C68.2601 9.36994 57.9201 3.57994 51.6101 1.43994Z" fill="white"/>
<path d="M44.61 22.6699C44.79 22.2399 42.76 21.8599 40.03 21.8599C39.89 22.0999 42.11 23.1999 43.47 23.2199C43.687 23.2099 43.9 23.1559 44.096 23.0619C44.292 22.9669 44.467 22.8339 44.61 22.6699Z" fill="white"/>
<path d="M14.6001 99.1499C14.2601 99.1499 13.7901 99.1499 13.4301 99.1499V102.67C13.4301 102.747 13.3991 102.821 13.3451 102.875C13.2911 102.929 13.2171 102.96 13.1401 102.96H11.2701C11.2331 102.963 11.1961 102.958 11.1611 102.945C11.1251 102.933 11.0931 102.914 11.0661 102.888C11.0391 102.863 11.0171 102.832 11.0021 102.798C10.9871 102.764 10.9801 102.727 10.9801 102.69V92.9499C10.9801 92.4499 11.1801 92.3199 11.6301 92.2499C12.6051 92.1219 13.5871 92.0579 14.5701 92.0599C16.7601 92.0599 18.9201 92.8299 18.9201 95.5599V95.6899C18.9201 98.3599 16.7601 99.1499 14.6001 99.1499ZM16.4601 95.5199C16.4601 94.5199 15.8201 94.0799 14.6001 94.0799H13.4301V97.0799C13.5901 97.0799 14.4301 97.0799 14.6001 97.0799C15.8901 97.0799 16.4601 96.5999 16.4601 95.6199V95.5199Z" fill="white"/>
<path d="M28.5201 102.92H26.3001C26.1401 102.92 26.0901 102.78 26.0101 102.63L24.0701 99H23.9101H22.9101V102.68C22.9101 102.757 22.8791 102.831 22.8251 102.885C22.7711 102.939 22.6971 102.97 22.6201 102.97H20.7401C20.6631 102.97 20.5891 102.939 20.5351 102.885C20.4811 102.831 20.4501 102.757 20.4501 102.68V92.96C20.4501 92.46 20.6501 92.33 21.1001 92.26C22.0601 92.113 23.0291 92.026 24.0001 92C26.4701 92 28.3701 92.83 28.3701 95.39V95.58C28.4071 96.199 28.2451 96.814 27.9091 97.336C27.5731 97.857 27.0791 98.258 26.5001 98.48L28.6901 102.57C28.7021 102.623 28.7021 102.677 28.6901 102.73C28.7401 102.85 28.6801 102.92 28.5201 102.92ZM25.9101 95.41C25.9101 94.53 25.2301 94.12 24.0101 94.12C23.8101 94.12 23.0601 94.12 22.8801 94.12V97C23.0401 97 23.7501 97 23.8801 97C25.4001 97 25.8801 96.61 25.8801 95.62L25.9101 95.41Z" fill="white"/>
<path d="M34.32 103.05C31.93 103.05 30.03 101.76 30.03 98.4V96.68C30.03 93.31 31.93 92.02 34.32 92.02C36.71 92.02 38.61 93.31 38.61 96.68V98.4C38.61 101.76 36.71 103.05 34.32 103.05ZM36.12 96.68C36.12 94.94 35.54 94.2 34.32 94.2C33.1 94.2 32.54 94.94 32.54 96.68V98.4C32.54 100.14 33.11 100.88 34.32 100.88C35.53 100.88 36.12 100.14 36.12 98.4V96.68Z" fill="white"/>
<path d="M42.2001 104.29L41.5401 105.4C41.3801 105.68 41.3001 105.75 41.1001 105.75H39.2001C39.1741 105.753 39.1481 105.751 39.1241 105.742C39.0991 105.734 39.0771 105.72 39.0581 105.702C39.0401 105.683 39.0261 105.661 39.0181 105.636C39.0091 105.612 39.0071 105.586 39.0101 105.56C39.0101 105.483 39.0311 105.407 39.0701 105.34L39.8501 103.82C40.2981 103.075 40.4911 102.204 40.4001 101.34V92.4299C40.3971 92.3949 40.4021 92.3599 40.4131 92.3269C40.4241 92.2929 40.4421 92.2629 40.4651 92.2369C40.4891 92.2109 40.5171 92.1889 40.5491 92.1739C40.5811 92.1599 40.6151 92.1509 40.6501 92.1499H42.6501C42.6851 92.1509 42.7191 92.1599 42.7511 92.1739C42.7831 92.1889 42.8111 92.2109 42.8351 92.2369C42.8581 92.2629 42.8761 92.2929 42.8871 92.3269C42.8981 92.3599 42.9031 92.3949 42.9001 92.4299V101.34C42.9781 102.372 42.7331 103.403 42.2001 104.29Z" fill="white"/>
<path d="M51.2001 102.87C50.2701 103.004 49.3301 103.064 48.3901 103.05C46.5201 103.05 44.8701 102.58 44.8701 99.94V95.12C44.8701 92.49 46.5301 92.02 48.4001 92.02C49.3371 92.007 50.2731 92.07 51.2001 92.21C51.4001 92.21 51.4901 92.31 51.4901 92.5V93.85C51.4901 93.927 51.4591 94.001 51.4051 94.055C51.3511 94.109 51.2771 94.14 51.2001 94.14H48.2601C47.5801 94.14 47.3301 94.37 47.3301 95.14V96.46H51.0801C51.1571 96.46 51.2311 96.491 51.2851 96.545C51.3391 96.599 51.3701 96.673 51.3701 96.75V98.13C51.3701 98.207 51.3391 98.281 51.2851 98.335C51.2311 98.389 51.1571 98.42 51.0801 98.42H47.3301V99.96C47.3301 100.71 47.5801 100.96 48.2601 100.96H51.2001C51.2771 100.96 51.3511 100.991 51.4051 101.045C51.4591 101.099 51.4901 101.173 51.4901 101.25V102.6C51.4901 102.75 51.4001 102.84 51.2001 102.87Z" fill="white"/>
<path d="M59.5201 102.81C58.8141 102.984 58.0871 103.065 57.3601 103.05C55.1601 103.05 53.0701 101.89 53.0701 98.4399V96.6199C53.0701 93.1699 55.1601 92.0199 57.3601 92.0199C58.0881 92.0069 58.8141 92.0909 59.5201 92.2699C59.7301 92.3299 59.8401 92.3899 59.8401 92.5899V93.9999C59.8451 94.0389 59.8411 94.0789 59.8281 94.1159C59.8151 94.1539 59.7941 94.1879 59.7661 94.2159C59.7381 94.2439 59.7041 94.2649 59.6661 94.2779C59.6291 94.2909 59.5891 94.2949 59.5501 94.2899C59.0001 94.2899 58.2001 94.1799 57.4101 94.1799C56.4101 94.1799 55.6101 94.6999 55.6101 96.6299V98.4499C55.6101 100.38 56.4101 100.9 57.4101 100.9C58.2001 100.9 59.0001 100.83 59.5501 100.79C59.5891 100.785 59.6291 100.789 59.6661 100.802C59.7041 100.815 59.7381 100.836 59.7661 100.864C59.7941 100.892 59.8151 100.926 59.8281 100.964C59.8411 101.001 59.8451 101.041 59.8401 101.08V102.48C59.8401 102.68 59.7301 102.75 59.5201 102.81Z" fill="white"/>
<path d="M68.28 94.1999H65.93V102.63C65.93 102.707 65.899 102.781 65.845 102.835C65.791 102.889 65.717 102.92 65.64 102.92H63.7401C63.6631 102.92 63.589 102.889 63.535 102.835C63.481 102.781 63.45 102.707 63.45 102.63V94.1999H61.09C61.052 94.2009 61.015 94.1949 60.98 94.1819C60.945 94.1679 60.913 94.1479 60.886 94.1219C60.858 94.0949 60.8371 94.0639 60.8221 94.0299C60.8081 93.9949 60.8 93.9579 60.8 93.9199V92.4299C60.8 92.3919 60.8081 92.3549 60.8221 92.3199C60.8371 92.2859 60.858 92.2549 60.886 92.2279C60.913 92.2019 60.945 92.1819 60.98 92.1679C61.015 92.1549 61.052 92.1489 61.09 92.1499H68.28C68.358 92.1469 68.4341 92.1749 68.4921 92.2269C68.5501 92.2789 68.585 92.3519 68.59 92.4299V93.9199C68.585 93.9979 68.5501 94.0709 68.4921 94.1229C68.4341 94.1749 68.358 94.2029 68.28 94.1999Z" fill="white"/>
<path d="M83.1401 102.92H81.2301C81.1961 102.916 81.1631 102.906 81.1321 102.889C81.1021 102.873 81.0761 102.85 81.0541 102.823C81.0331 102.796 81.0171 102.765 81.0081 102.732C80.9981 102.699 80.9961 102.664 81.0001 102.63V96.63C81.0001 96.53 80.9501 96.51 80.9201 96.51C80.8901 96.51 80.8501 96.51 80.8101 96.61L79.5001 99C79.4581 99.077 79.3961 99.14 79.3201 99.182C79.2441 99.225 79.1571 99.245 79.0701 99.24H77.9101C77.8221 99.244 77.7341 99.224 77.6561 99.182C77.5791 99.14 77.5141 99.077 77.4701 99L76.1701 96.6C76.1701 96.53 76.1001 96.5 76.0501 96.5C76.0001 96.5 75.9801 96.5 75.9801 96.62V102.62C75.9841 102.654 75.9821 102.689 75.9721 102.722C75.9631 102.755 75.9471 102.786 75.9261 102.813C75.9041 102.84 75.8781 102.863 75.8481 102.879C75.8171 102.896 75.7841 102.906 75.7501 102.91H73.8401C73.7201 102.91 73.5901 102.91 73.5901 102.71V92.65C73.5871 92.582 73.5981 92.514 73.6241 92.45C73.6491 92.387 73.6881 92.33 73.7371 92.282C73.7861 92.235 73.8451 92.199 73.9091 92.176C73.9731 92.153 74.0421 92.144 74.1101 92.15H75.4701C75.6031 92.145 75.7351 92.18 75.8491 92.249C75.9621 92.318 76.0531 92.419 76.1101 92.54L78.3301 96.68C78.3901 96.79 78.4301 96.86 78.4901 96.86C78.5501 96.86 78.5901 96.79 78.6501 96.68L80.8701 92.54C80.9261 92.421 81.0151 92.321 81.1271 92.252C81.2391 92.182 81.3691 92.147 81.5001 92.15H82.8701C82.9381 92.147 83.0061 92.159 83.0701 92.183C83.1341 92.208 83.1921 92.245 83.2401 92.293C83.2891 92.34 83.3271 92.398 83.3531 92.461C83.3791 92.524 83.3911 92.592 83.3901 92.66V102.72C83.3901 102.88 83.2601 102.92 83.1401 102.92Z" fill="white"/>
<path d="M93.19 102.92H91.28C91.244 102.919 91.208 102.91 91.175 102.895C91.142 102.879 91.112 102.857 91.088 102.83C91.064 102.803 91.045 102.772 91.034 102.737C91.022 102.703 91.017 102.666 91.02 102.63V99.11H87.87V102.63C87.871 102.667 87.865 102.703 87.853 102.738C87.84 102.772 87.82 102.804 87.795 102.831C87.77 102.858 87.74 102.88 87.706 102.895C87.673 102.91 87.637 102.919 87.6 102.92H85.68C85.603 102.92 85.529 102.889 85.475 102.835C85.421 102.781 85.39 102.707 85.39 102.63V95.2401C85.39 92.6301 86.97 92.05 88.91 92.05H90C91.95 92.05 93.51 92.6301 93.51 95.2401V102.63C93.51 102.671 93.502 102.711 93.485 102.748C93.469 102.786 93.445 102.819 93.415 102.846C93.385 102.874 93.349 102.894 93.31 102.907C93.271 102.92 93.231 102.924 93.19 102.92ZM91 95.2401C91 94.4401 90.76 94.2401 89.95 94.2401H88.89C88.1 94.2401 87.89 94.4801 87.89 95.2401V97.0701H91V95.2401Z" fill="white"/>
<path d="M103.59 102.92H101.65C101.613 102.92 101.576 102.913 101.542 102.898C101.508 102.883 101.477 102.861 101.452 102.834C101.426 102.807 101.407 102.775 101.395 102.739C101.382 102.704 101.377 102.667 101.38 102.63V96.17C101.38 94.54 100.85 94.17 99.6601 94.17C99.0921 94.166 98.5241 94.196 97.9601 94.26V102.65C97.9631 102.687 97.9581 102.724 97.9451 102.759C97.9331 102.795 97.9141 102.827 97.8881 102.854C97.8631 102.881 97.8321 102.903 97.7981 102.918C97.7641 102.933 97.7271 102.94 97.6901 102.94H95.7601C95.7221 102.94 95.6851 102.932 95.6501 102.918C95.6161 102.903 95.5851 102.882 95.5581 102.854C95.5321 102.827 95.5121 102.795 95.4981 102.76C95.4851 102.725 95.4791 102.688 95.4801 102.65V93.19C95.4801 92.54 95.6601 92.38 96.2201 92.29C97.2681 92.148 98.3231 92.065 99.3801 92.04C102.2 92.04 103.86 92.83 103.86 96.19V102.65C103.86 102.722 103.832 102.79 103.781 102.841C103.73 102.892 103.662 102.92 103.59 102.92Z" fill="white"/>
<path d="M113.66 102.92H111.75C111.714 102.919 111.678 102.91 111.645 102.895C111.612 102.879 111.582 102.857 111.558 102.83C111.534 102.803 111.515 102.772 111.504 102.737C111.492 102.703 111.487 102.666 111.49 102.63V99.11H108.34V102.63C108.343 102.667 108.338 102.704 108.325 102.739C108.313 102.775 108.294 102.807 108.268 102.834C108.243 102.861 108.212 102.883 108.178 102.898C108.144 102.913 108.107 102.92 108.07 102.92H106.16C106.083 102.92 106.009 102.889 105.955 102.835C105.901 102.781 105.87 102.707 105.87 102.63V95.2401C105.87 92.6301 107.45 92.05 109.39 92.05H110.45C112.39 92.05 113.95 92.6301 113.95 95.2401V102.63C113.95 102.668 113.942 102.706 113.928 102.741C113.913 102.776 113.892 102.808 113.865 102.835C113.838 102.862 113.806 102.883 113.771 102.898C113.736 102.912 113.698 102.92 113.66 102.92ZM111.49 95.2401C111.49 94.4401 111.26 94.2401 110.49 94.2401H109.43C108.63 94.2401 108.43 94.4801 108.43 95.2401V97.0701H111.58L111.49 95.2401Z" fill="white"/>
<path d="M123.13 94.3001C122.43 94.3001 121.35 94.1801 120.13 94.1801C118.91 94.1801 118.23 94.7501 118.23 96.6501V98.4601C118.23 100.46 119.14 100.92 119.85 100.92C120.26 100.92 120.62 100.92 120.97 100.92V97.5901C120.967 97.5531 120.972 97.5161 120.985 97.4811C120.997 97.4451 121.016 97.4131 121.042 97.3861C121.067 97.3591 121.098 97.3371 121.132 97.3221C121.166 97.3071 121.203 97.3001 121.24 97.3001H123.1C123.138 97.3001 123.176 97.3081 123.211 97.3221C123.246 97.3371 123.278 97.3581 123.305 97.3851C123.332 97.4121 123.353 97.4441 123.368 97.4791C123.382 97.5141 123.39 97.5521 123.39 97.5901V102.46C123.39 102.66 123.31 102.75 123.1 102.79C122.03 103.002 120.941 103.102 119.85 103.09C118.2 103.09 115.72 102.15 115.72 98.4801V96.6901C115.72 92.9901 118.02 92.0601 120.13 92.0601C121.14 92.0591 122.146 92.1731 123.13 92.4001C123.28 92.4001 123.38 92.4801 123.38 92.6101V94.1501C123.35 94.2701 123.26 94.3001 123.13 94.3001Z" fill="white"/>
<path d="M131.6 102.87C130.67 103.004 129.73 103.065 128.79 103.05C126.92 103.05 125.27 102.58 125.27 99.94V95.12C125.27 92.49 126.93 92.02 128.8 92.02C129.737 92.007 130.673 92.07 131.6 92.21C131.8 92.21 131.89 92.31 131.89 92.5V93.85C131.89 93.927 131.859 94.001 131.805 94.055C131.751 94.109 131.677 94.14 131.6 94.14H128.66C127.98 94.14 127.73 94.37 127.73 95.14V96.46H131.49C131.567 96.46 131.641 96.491 131.695 96.545C131.749 96.599 131.78 96.673 131.78 96.75V98.13C131.78 98.207 131.749 98.281 131.695 98.335C131.641 98.389 131.567 98.42 131.49 98.42H127.73V99.96C127.73 100.71 127.98 100.96 128.66 100.96H131.6C131.677 100.96 131.751 100.991 131.805 101.045C131.859 101.099 131.89 101.173 131.89 101.25V102.6C131.89 102.75 131.8 102.84 131.6 102.87Z" fill="white"/>
<path d="M141.82 102.92H139.61C139.45 102.92 139.39 102.78 139.32 102.63L137.37 98.9998H137.21H136.21V102.68C136.21 102.757 136.179 102.831 136.125 102.885C136.071 102.939 135.997 102.97 135.92 102.97H134C133.923 102.97 133.849 102.939 133.795 102.885C133.741 102.831 133.71 102.757 133.71 102.68V92.9598C133.71 92.4598 133.91 92.3298 134.36 92.2598C135.335 92.1338 136.317 92.0708 137.3 92.0698C139.77 92.0698 141.67 92.8998 141.67 95.4598V95.6498C141.707 96.2688 141.545 96.8838 141.209 97.4058C140.873 97.9268 140.379 98.3278 139.8 98.5498L141.99 102.64C142.002 102.693 142.002 102.747 141.99 102.8C142 102.85 142 102.92 141.82 102.92ZM139.21 95.4098C139.21 94.5298 138.53 94.1198 137.31 94.1198C137.11 94.1198 136.36 94.1198 136.18 94.1198V96.9998C136.34 96.9998 137.05 96.9998 137.18 96.9998C138.71 96.9998 139.18 96.6098 139.18 95.6198L139.21 95.4098Z" fill="white"/>
<path d="M146.52 103.05C145.597 103.062 144.676 102.954 143.78 102.73C143.64 102.73 143.49 102.6 143.49 102.44V101C143.485 100.964 143.489 100.928 143.5 100.894C143.511 100.86 143.53 100.828 143.555 100.803C143.58 100.777 143.611 100.757 143.644 100.744C143.678 100.731 143.714 100.727 143.75 100.73H143.8C144.39 100.79 145.99 100.9 146.55 100.9C147.55 100.9 147.84 100.58 147.84 99.9C147.84 99.48 147.64 99.25 146.84 98.8L144.84 97.61C144.319 97.362 143.88 96.968 143.577 96.477C143.273 95.986 143.118 95.417 143.13 94.84C143.13 93.24 144.03 92.01 146.84 92.01C147.874 92.02 148.906 92.127 149.92 92.33C149.982 92.34 150.038 92.371 150.079 92.419C150.119 92.467 150.141 92.527 150.14 92.59V94.06C150.143 94.093 150.139 94.127 150.128 94.158C150.116 94.189 150.098 94.218 150.074 94.241C150.049 94.264 150.02 94.281 149.989 94.292C149.957 94.302 149.923 94.305 149.89 94.3C149.48 94.3 147.8 94.14 146.82 94.14C145.99 94.14 145.69 94.39 145.69 94.91C145.69 95.43 145.87 95.51 146.69 95.91L148.54 96.91C149.136 97.134 149.647 97.537 150.005 98.063C150.363 98.59 150.55 99.214 150.54 99.85C150.48 101.42 149.47 103.05 146.52 103.05Z" fill="white"/>
<defs>
<linearGradient id="paint0_linear" x1="22.375" y1="80.2199" x2="35.5023" y2="19.0862" gradientUnits="userSpaceOnUse">
<stop stop-color="#EDEDED" stop-opacity="0"/>
<stop offset="1" stop-color="#B5B5B6"/>
</linearGradient>
</defs>
</svg>
